<svg width="210" height="201" viewBox="0 0 210 201" fill="none" xmlns="http://www.w3.org/2000/svg">
<path d="M123.363 0.51583C110.8 -1.05996 98.6283 5.45214 92.9844 16.8023L31.8474 9.13427L29.3659 28.9197L48.6567 31.3392L10.7877 96.928C3.65659 116.13 16.9581 127.847 41.6899 130.949C66.4217 134.051 83.0951 126.094 80.0367 105.613L59.5387 32.7041L90.4039 36.5753C92.6139 45.3936 98.2376 52.6303 106.237 56.9496L92.3775 167.451L3.34305 156.284L0.861502 176.07L198.716 200.885L201.197 181.1L112.163 169.933L126.035 59.3322C134.841 57.2212 142.077 51.5975 146.298 43.5857L177.262 47.4693L139.393 113.058C132.262 132.26 145.563 143.977 170.295 147.079C195.027 150.181 211.7 142.224 208.642 121.744L188.144 48.8342L207.435 51.2537L209.916 31.4683L148.878 23.8127C146.113 11.4079 135.927 2.09162 123.363 0.51583ZM120.882 20.3013C123.506 20.6303 125.891 21.9882 127.514 24.0761C129.136 26.1641 129.863 28.811 129.534 31.4348C129.205 34.0585 127.847 36.444 125.759 38.0666C123.671 39.6891 121.024 40.4158 118.4 40.0867C115.777 39.7576 113.391 38.3998 111.769 36.3118C110.146 34.2239 109.419 31.5769 109.748 28.9532C110.077 26.3295 111.435 23.944 113.523 22.3214C115.611 20.6989 118.258 19.9722 120.882 20.3013ZM50.0651 64.173L60.2513 103.132L30.5732 99.4095L50.0651 64.173ZM178.67 80.3031L188.857 119.262L159.178 115.54L178.67 80.3031Z" fill="url(#paint0_linear_4496_3288)"/>
<defs>
<linearGradient id="paint0_linear_4496_3288" x1="36.3548" y1="-5.7474" x2="223.394" y2="148.563" gradientUnits="userSpaceOnUse">
<stop stop-color="#694DFA"/>
<stop offset="0.523168" stop-color="#A557E2"/>
<stop offset="1" stop-color="#47EDCD"/>
</linearGradient>
</defs>
</svg>
