<svg width="1565" height="340" viewBox="0 0 1565 340" fill="none" xmlns="http://www.w3.org/2000/svg">
<path opacity="0.5" d="M976.659 143.388C971.865 146.157 968.104 149.335 964.091 152.727C961.732 154.719 959.286 156.786 956.492 158.887C941.863 169.888 933.987 179.395 929.911 189.133L929.642 189.073C929.567 189.258 929.49 189.445 929.411 189.633L896.911 178.632C901.174 168.449 909.411 153.48 929.411 137.633C950.664 120.793 963.87 110.368 1000.15 106.879L996.565 136.265L995.911 141.633C986.544 142.533 980.645 142.955 976.659 143.388Z" fill="#526771"/>
<path d="M303.414 147.712H266.981V133.839C263.437 133.839 260.196 134.098 257.257 134.617C254.318 135.049 251.725 135.827 249.478 136.951C247.317 138.074 245.458 139.63 243.903 141.618C242.433 143.606 241.396 146.07 240.791 149.008V197.629H268.148V233.154H180.502V197.629H200.598V134.358H180.761V98.8323H240.532V108.297C244.335 105.272 248.613 102.938 253.367 101.296C258.121 99.6534 263.307 98.8323 268.926 98.8323C274.631 98.8323 280.508 98.8755 286.559 98.9619C292.609 99.0484 298.228 99.0916 303.414 99.0916V147.712Z" fill="#526771"/>
<path d="M408.823 98.8323H472.353V197.629H488.56V233.154H431.642V221.745C427.061 225.893 421.702 229.092 415.565 231.339C409.428 233.586 402.34 234.71 394.301 234.71C386.868 234.71 379.867 233.543 373.297 231.209C366.728 228.875 360.98 225.375 356.053 220.707C351.213 215.953 347.367 210.032 344.514 202.945C341.748 195.857 340.365 187.516 340.365 177.921V134.358H322.862V98.8323H382.244V177.921C382.244 186.911 384.534 193.653 389.115 198.147C393.696 202.556 399.661 204.76 407.008 204.76C412.194 204.76 416.905 203.161 421.14 199.963C425.375 196.764 428.444 192.443 430.345 186.997V134.358H408.823V98.8323Z" fill="#526771"/>
<path d="M558.962 98.8323H585.801V132.802H558.703L558.444 189.59C558.444 192.875 558.703 195.554 559.222 197.629C559.74 199.617 560.475 201.216 561.426 202.426C562.463 203.636 563.673 204.457 565.056 204.889C566.439 205.322 568.038 205.538 569.853 205.538C573.138 205.538 576.034 205.235 578.54 204.63C581.047 203.939 583.553 203.161 586.06 202.296L591.635 227.32C587.227 230.086 582.3 232.29 576.855 233.932C571.496 235.574 565.099 236.395 557.666 236.395C552.393 236.395 547.337 235.488 542.496 233.673C537.742 231.858 533.55 229.135 529.92 225.504C526.29 221.788 523.394 217.163 521.233 211.631C519.072 206.1 518.035 199.66 518.121 192.313L518.51 132.802H499.192V98.8323H518.64L518.899 66.678L559.222 47.4892L558.962 98.8323Z" fill="#526771"/>
<path d="M609.009 31.412H669.557V111.279C674.657 106.612 680.232 102.981 686.283 100.388C692.42 97.7086 699.162 96.3688 706.509 96.3688C722.672 96.3688 735.033 100.907 743.59 109.983C752.147 118.972 756.426 132.153 756.426 149.527V197.629H776.133V233.154H716.103V158.603C716.103 151.083 714.245 145.162 710.528 140.84C706.811 136.518 702.014 134.358 696.137 134.358C692.247 134.358 688.012 135.438 683.43 137.599C678.849 139.76 674.225 142.915 669.557 147.064V197.629H689.265V233.154H609.009V197.629H629.754V66.9373H609.009V31.412Z" fill="#526771"/>
<path d="M900.411 144.635C896.694 139.967 884.438 137.08 879.857 134.746C875.276 132.326 869.873 131.289 863.65 131.635C858.637 131.289 854.055 131.981 849.907 133.709C845.844 135.438 842.3 137.858 839.275 140.97C836.336 144.082 834.045 147.798 832.403 152.12C830.761 156.356 829.94 161.153 829.94 166.512C829.94 171.266 830.804 175.76 832.533 179.996C834.262 184.231 836.595 187.905 839.534 191.016C842.559 194.042 846.103 196.419 850.166 198.147C854.315 199.876 858.809 200.913 863.65 201.259C867.712 200.913 871.386 200.092 874.671 198.796C878.042 197.413 881.024 195.684 883.617 193.61C886.21 191.449 889.883 188.726 891.698 186.133C895.194 181.139 895.934 180.86 896.971 178.526L929.911 189.133C924.509 197.517 924.96 201.346 922.643 205.019C919.099 210.637 914.431 215.78 908.64 220.448C902.935 225.029 896.107 228.832 888.155 231.858C880.289 234.883 871.299 236.395 861.186 236.395C850.901 236.395 841.436 234.537 832.792 230.82C824.149 227.017 816.715 221.874 810.492 215.391C804.268 208.909 799.385 201.302 795.841 192.572C792.383 183.842 790.655 174.464 790.655 164.437C790.655 154.497 792.427 145.292 795.97 136.821C799.601 128.264 804.571 120.83 810.881 114.52C817.19 108.124 824.667 103.154 833.311 99.6102C842.041 96.0663 851.506 94.4672 861.705 94.813C868.966 94.4672 876.01 95.2884 882.839 97.2764C889.667 99.2644 896.15 102.246 902.287 106.223L927.411 120.135C927.411 120.135 922.356 123.764 912.911 131.635C904.613 138.55 900.411 144.635 900.411 144.635Z" fill="#526771"/>
<path d="M941.702 31.412H1002.25V103.154C1010.63 101.771 1029.09 98.8755 1039.68 99.0051C1050.27 99.1348 1067.73 100.907 1076.28 109.983C1084.84 118.972 1089.12 132.153 1089.12 149.527V197.629H1108.83V233.154H1048.8V158.603C1048.8 151.083 1046.94 145.162 1043.22 140.84C1039.5 136.518 1034.49 133.58 1028.61 133.58C1024.72 133.58 1024.37 133.796 1019.45 134.358C1013.95 134.985 1007.87 136.346 1002.25 137.599V197.629H1021.96V233.154H941.702V197.629H962.446V66.9373H941.702V31.412Z" fill="#526771"/>
<path d="M1206.97 225.893C1203.95 227.795 1201.18 229.437 1198.68 230.82C1196.17 232.117 1193.66 233.154 1191.16 233.932C1188.65 234.796 1186.06 235.401 1183.38 235.747C1180.7 236.179 1177.76 236.395 1174.56 236.395C1166.52 236.395 1159.3 235.315 1152.91 233.154C1146.6 230.907 1141.24 227.881 1136.83 224.078C1132.51 220.189 1129.18 215.651 1126.85 210.465C1124.51 205.192 1123.35 199.487 1123.35 193.35C1123.35 187.127 1124.51 181.379 1126.85 176.106C1129.27 170.834 1132.73 166.339 1137.22 162.622C1141.72 158.819 1147.2 155.88 1153.69 153.806C1160.26 151.645 1167.73 150.564 1176.12 150.564C1182.25 150.564 1187.83 150.91 1192.84 151.602C1197.94 152.207 1202.65 152.985 1206.97 153.935V149.786C1206.97 146.415 1206.33 143.52 1205.03 141.1C1203.73 138.593 1201.92 136.562 1199.58 135.006C1197.25 133.364 1194.44 132.197 1191.16 131.505C1187.87 130.727 1184.28 130.338 1180.4 130.338C1172.27 130.338 1165.1 131.159 1158.87 132.802C1152.74 134.358 1146.81 136.648 1141.11 139.673L1128.66 114.52C1137.48 108.47 1146.69 103.846 1156.28 100.647C1165.96 97.4493 1176.2 95.8502 1187.01 95.8502C1195.39 95.8502 1203.13 96.801 1210.22 98.7026C1217.39 100.518 1223.53 103.543 1228.63 107.778C1233.73 111.927 1237.7 117.373 1240.55 124.115C1243.49 130.857 1244.96 139.068 1244.96 148.749V197.629H1262.98V233.154H1206.97V225.893ZM1177.41 205.797C1183.55 205.797 1189.13 204.803 1194.14 202.815C1199.15 200.827 1203.43 198.407 1206.97 195.554V178.44H1175.86C1173.87 178.44 1171.92 178.743 1170.02 179.348C1168.12 179.953 1166.39 180.817 1164.84 181.941C1163.37 183.064 1162.16 184.447 1161.21 186.09C1160.34 187.732 1159.91 189.633 1159.91 191.794C1159.91 195.77 1161.34 199.098 1164.19 201.778C1167.13 204.457 1171.54 205.797 1177.41 205.797Z" fill="#526771"/>
<path d="M1290.34 98.8323H1350.63V197.629H1369.3V233.154H1290.34V197.629H1310.57V134.358H1290.34V98.8323ZM1308.49 55.5277C1308.49 52.3296 1309.06 49.3476 1310.18 46.5816C1311.39 43.7292 1313.03 41.2658 1315.11 39.1913C1317.18 37.1168 1319.6 35.4745 1322.37 34.2644C1325.22 33.0543 1328.29 32.4493 1331.57 32.4493C1334.68 32.4493 1337.62 33.0543 1340.39 34.2644C1343.15 35.4745 1345.57 37.1168 1347.65 39.1913C1349.72 41.2658 1351.37 43.7292 1352.58 46.5816C1353.79 49.3476 1354.39 52.3296 1354.39 55.5277C1354.39 58.7259 1353.79 61.7511 1352.58 64.6035C1351.37 67.3695 1349.72 69.7897 1347.65 71.8642C1345.57 73.9387 1343.15 75.5809 1340.39 76.791C1337.62 78.0011 1334.68 78.6062 1331.57 78.6062C1328.29 78.6062 1325.22 78.0011 1322.37 76.791C1319.6 75.5809 1317.18 73.9387 1315.11 71.8642C1313.03 69.7897 1311.39 67.3695 1310.18 64.6035C1309.06 61.7511 1308.49 58.7259 1308.49 55.5277Z" fill="#526771"/>
<path d="M1503.23 155.88C1503.23 148.36 1501.25 142.483 1497.27 138.247C1493.29 133.925 1488.02 131.764 1481.45 131.764C1476.96 131.764 1472.42 132.758 1467.84 134.746C1463.26 136.735 1458.81 140.451 1454.48 145.897V197.629H1476.27V233.154H1392.77V197.629H1412.48V134.358H1393.03V98.8323H1454.23V110.631C1459.84 106.223 1466.11 102.765 1473.02 100.258C1480.03 97.6654 1487.37 96.3688 1495.07 96.3688C1511.23 96.3688 1523.68 100.907 1532.41 109.983C1541.14 118.972 1545.5 132.153 1545.5 149.527V197.629H1564.56V233.154H1503.23V155.88Z" fill="#526771"/>
<path d="M54.5177 191.816H78.765V40.9269H50.3478V71.1974H0V0H212.974V71.1974H162.318V40.9269H130.039V191.816H154.75V234.133H54.5177V191.816Z" fill="#526771"/>
<g opacity="0.5">
<path d="M942 313.905H947.403V280.034H942V270.331L967.762 270.401C970.156 270.401 972.341 270.833 974.316 271.697C976.315 272.538 978.035 273.694 979.476 275.165C980.916 276.613 982.032 278.317 982.822 280.279C983.636 282.217 984.042 284.284 984.042 286.479C984.042 289.047 983.589 291.172 982.683 292.853C981.8 294.535 980.533 295.889 978.883 296.917C980.626 298.037 981.997 299.427 982.996 301.085C984.019 302.719 984.53 304.716 984.53 307.074C984.53 309.48 984.112 311.686 983.275 313.695C982.462 315.703 981.335 317.443 979.894 318.914C978.476 320.361 976.791 321.494 974.839 322.311C972.887 323.105 970.784 323.502 968.529 323.502H942V313.905ZM958.977 301.54V313.905H967.762C968.436 313.905 969.064 313.73 969.645 313.379C970.249 313.029 970.76 312.574 971.179 312.013C971.62 311.43 971.969 310.764 972.224 310.017C972.48 309.246 972.608 308.452 972.608 307.635C972.608 306.771 972.48 305.977 972.224 305.253C971.969 304.506 971.62 303.864 971.179 303.327C970.737 302.766 970.214 302.334 969.61 302.031C969.029 301.704 968.413 301.54 967.762 301.54H958.977ZM958.977 280.034V291.943H967.274C967.925 291.943 968.541 291.779 969.122 291.452C969.703 291.125 970.203 290.693 970.621 290.156C971.062 289.596 971.411 288.977 971.667 288.3C971.922 287.599 972.05 286.876 972.05 286.128C972.05 285.404 971.922 284.68 971.667 283.957C971.411 283.233 971.062 282.579 970.621 281.995C970.203 281.411 969.703 280.944 969.122 280.594C968.541 280.22 967.925 280.034 967.274 280.034H958.977Z" fill="#526771"/>
<path d="M988.156 287.214H1005.87V296.812H1003.08L1008.27 310.402L1013.6 296.812H1010.5V287.214H1028.21V296.812H1024.27L1010.29 330.403H1016.5V340H994.082V330.403H1000.39L1003.11 323.502L991.816 296.812H988.156V287.214Z" fill="#526771"/>
<path d="M1082.52 286.549C1081.22 284.68 1080.05 283.361 1079 282.591C1077.96 281.797 1076.83 281.236 1075.62 280.909C1074.41 280.559 1073.15 280.384 1071.82 280.384C1069.87 280.384 1068.06 280.827 1066.38 281.715C1064.71 282.579 1063.26 283.77 1062.03 285.288C1060.82 286.782 1059.86 288.533 1059.17 290.542C1058.47 292.527 1058.12 294.64 1058.12 296.882C1058.12 299.147 1058.46 301.283 1059.13 303.292C1059.83 305.276 1060.78 307.016 1061.99 308.511C1063.2 310.005 1064.64 311.196 1066.31 312.083C1067.99 312.947 1069.82 313.379 1071.82 313.379C1073.22 313.379 1074.52 313.158 1075.73 312.714C1076.94 312.247 1078.03 311.64 1079 310.892C1080 310.145 1080.87 309.293 1081.62 308.335C1082.36 307.355 1082.94 306.339 1083.36 305.288L1094.59 308.441C1093.87 310.729 1092.81 312.854 1091.41 314.815C1090.02 316.754 1088.33 318.435 1086.36 319.859C1084.41 321.284 1082.2 322.405 1079.74 323.222C1077.3 324.039 1074.66 324.448 1071.82 324.448C1069.43 324.448 1067.14 324.121 1064.95 323.467C1062.77 322.813 1060.72 321.891 1058.82 320.7C1056.94 319.509 1055.22 318.073 1053.66 316.392C1052.13 314.71 1050.81 312.854 1049.72 310.822C1048.63 308.767 1047.78 306.572 1047.18 304.237C1046.57 301.879 1046.27 299.427 1046.27 296.882C1046.27 293.075 1046.93 289.514 1048.26 286.198C1049.58 282.859 1051.39 279.952 1053.69 277.477C1056 274.978 1058.69 273.016 1061.78 271.592C1064.9 270.144 1068.24 269.42 1071.82 269.42C1074.68 269.42 1077.09 269.782 1079.04 270.506C1080.99 271.207 1083.14 272.608 1085.49 274.709H1093.3V286.549H1082.52Z" fill="#526771"/>
<path d="M1100.65 305.218C1100.65 302.579 1101.13 300.104 1102.08 297.792C1103.03 295.481 1104.36 293.461 1106.06 291.733C1107.75 290.005 1109.77 288.639 1112.12 287.634C1114.47 286.63 1117.05 286.128 1119.86 286.128C1122.67 286.128 1125.25 286.63 1127.6 287.634C1129.97 288.639 1132 290.005 1133.7 291.733C1135.4 293.461 1136.71 295.481 1137.64 297.792C1138.59 300.104 1139.07 302.579 1139.07 305.218C1139.07 307.857 1138.6 310.344 1137.67 312.679C1136.77 314.991 1135.47 317.022 1133.77 318.774C1132.1 320.502 1130.07 321.868 1127.7 322.872C1125.36 323.876 1122.74 324.378 1119.86 324.378C1116.96 324.378 1114.32 323.876 1111.95 322.872C1109.6 321.868 1107.59 320.502 1105.92 318.774C1104.24 317.046 1102.94 315.026 1102.01 312.714C1101.11 310.379 1100.65 307.88 1100.65 305.218ZM1111.08 305.218C1111.08 306.596 1111.31 307.868 1111.77 309.036C1112.24 310.18 1112.87 311.173 1113.66 312.013C1114.47 312.854 1115.4 313.508 1116.44 313.975C1117.51 314.442 1118.65 314.675 1119.86 314.675C1121.09 314.675 1122.23 314.454 1123.28 314.01C1124.35 313.543 1125.26 312.889 1126.03 312.048C1126.82 311.208 1127.44 310.215 1127.88 309.071C1128.32 307.903 1128.54 306.619 1128.54 305.218C1128.54 303.77 1128.32 302.463 1127.88 301.295C1127.44 300.127 1126.82 299.135 1126.03 298.318C1125.26 297.5 1124.35 296.882 1123.28 296.461C1122.23 296.018 1121.09 295.807 1119.86 295.831C1118.65 295.807 1117.51 296.018 1116.44 296.461C1115.4 296.882 1114.47 297.5 1113.66 298.318C1112.87 299.135 1112.24 300.127 1111.77 301.295C1111.31 302.463 1111.08 303.77 1111.08 305.218Z" fill="#526771"/>
<path d="M1143.64 269H1159.92V313.905H1165.49V323.502H1143.64V313.905H1149.21V278.597H1143.64V269Z" fill="#526771"/>
<path d="M1170.83 269H1187.11V313.905H1192.69V323.502H1170.83V313.905H1176.41V278.597H1170.83V269Z" fill="#526771"/>
<path d="M1220.96 321.541C1220.14 322.054 1219.4 322.498 1218.73 322.872C1218.05 323.222 1217.38 323.502 1216.7 323.712C1216.03 323.946 1215.33 324.109 1214.61 324.203C1213.89 324.32 1213.1 324.378 1212.24 324.378C1210.08 324.378 1208.14 324.086 1206.42 323.502C1204.72 322.895 1203.28 322.078 1202.1 321.05C1200.94 320 1200.04 318.774 1199.41 317.372C1198.79 315.948 1198.47 314.407 1198.47 312.749C1198.47 311.068 1198.79 309.515 1199.41 308.09C1200.06 306.666 1200.99 305.452 1202.2 304.447C1203.41 303.42 1204.89 302.626 1206.63 302.066C1208.4 301.482 1210.41 301.19 1212.66 301.19C1214.31 301.19 1215.81 301.283 1217.16 301.47C1218.53 301.634 1219.8 301.844 1220.96 302.101V300.98C1220.96 300.069 1220.78 299.287 1220.43 298.633C1220.09 297.956 1219.6 297.407 1218.97 296.987C1218.34 296.543 1217.59 296.228 1216.7 296.041C1215.82 295.831 1214.86 295.726 1213.81 295.726C1211.63 295.726 1209.7 295.948 1208.02 296.391C1206.37 296.812 1204.78 297.43 1203.25 298.248L1199.9 291.452C1202.27 289.818 1204.75 288.568 1207.33 287.704C1209.93 286.84 1212.68 286.408 1215.59 286.408C1217.84 286.408 1219.92 286.665 1221.83 287.179C1223.76 287.669 1225.41 288.487 1226.78 289.631C1228.15 290.752 1229.22 292.223 1229.99 294.044C1230.78 295.866 1231.17 298.084 1231.17 300.7V313.905H1236.02V323.502H1220.96V321.541ZM1213.01 316.111C1214.66 316.111 1216.16 315.843 1217.51 315.306C1218.85 314.769 1220 314.115 1220.96 313.344V308.721H1212.59C1212.06 308.721 1211.53 308.802 1211.02 308.966C1210.51 309.129 1210.05 309.363 1209.63 309.667C1209.23 309.97 1208.91 310.344 1208.65 310.787C1208.42 311.231 1208.3 311.745 1208.3 312.329C1208.3 313.403 1208.69 314.302 1209.45 315.026C1210.24 315.75 1211.43 316.111 1213.01 316.111Z" fill="#526771"/>
<path d="M1241.6 269H1257.35V288.02C1258.61 287.413 1259.9 286.946 1261.22 286.619C1262.55 286.292 1263.91 286.128 1265.3 286.128C1267.97 286.128 1270.45 286.63 1272.73 287.634C1275 288.639 1276.97 290.005 1278.62 291.733C1280.27 293.461 1281.56 295.481 1282.49 297.792C1283.44 300.104 1283.92 302.556 1283.92 305.148C1283.92 307.763 1283.45 310.227 1282.52 312.539C1281.62 314.851 1280.34 316.87 1278.69 318.598C1277.04 320.303 1275.07 321.657 1272.8 322.662C1270.52 323.642 1268.02 324.133 1265.3 324.133C1263.84 324.133 1262.44 323.993 1261.12 323.712C1259.79 323.432 1258.54 323.035 1257.35 322.521V323.502H1246.65V278.597H1241.6V269ZM1264.57 295.796C1263.03 295.796 1261.65 296.146 1260.42 296.847C1259.21 297.547 1258.19 298.551 1257.35 299.859V310.717C1258.1 311.838 1259.08 312.749 1260.32 313.449C1261.57 314.127 1262.96 314.465 1264.5 314.465C1265.68 314.465 1266.81 314.255 1267.88 313.835C1268.95 313.391 1269.88 312.772 1270.67 311.978C1271.48 311.161 1272.12 310.192 1272.59 309.071C1273.05 307.927 1273.28 306.642 1273.28 305.218C1273.28 303.77 1273.05 302.463 1272.59 301.295C1272.12 300.127 1271.49 299.135 1270.7 298.318C1269.91 297.5 1268.98 296.882 1267.92 296.461C1266.87 296.018 1265.75 295.796 1264.57 295.796Z" fill="#526771"/>
<path d="M1287.54 287.214H1306.4V296.812H1302.32L1306.16 309.737L1313.58 287.214H1323.8L1331.29 310.892L1335.89 296.812H1332.02V287.214H1350.88V296.812H1346.04L1336.38 323.642H1325.96L1318.39 300.489L1310.69 323.642H1300.54L1291.59 296.812H1287.54V287.214Z" fill="#526771"/>
<path d="M1387.84 300.419H1378.04V296.671C1377.09 296.671 1376.22 296.741 1375.43 296.882C1374.64 296.998 1373.94 297.209 1373.33 297.512C1372.75 297.816 1372.25 298.236 1371.84 298.773C1371.44 299.31 1371.16 299.976 1371 300.77V313.905H1378.35V323.502H1354.79V313.905H1360.19V296.812H1354.86V287.214H1370.93V289.771C1371.95 288.954 1373.1 288.323 1374.38 287.88C1375.66 287.436 1377.05 287.214 1378.56 287.214C1380.1 287.214 1381.68 287.226 1383.3 287.249C1384.93 287.272 1386.44 287.284 1387.84 287.284V300.419Z" fill="#526771"/>
<path d="M1393.76 287.214H1409.97V313.905H1414.99V323.502H1393.76V313.905H1399.2V296.812H1393.76V287.214ZM1398.64 275.515C1398.64 274.651 1398.79 273.845 1399.1 273.098C1399.42 272.328 1399.86 271.662 1400.42 271.102C1400.98 270.541 1401.63 270.098 1402.37 269.771C1403.14 269.444 1403.97 269.28 1404.85 269.28C1405.69 269.28 1406.48 269.444 1407.22 269.771C1407.96 270.098 1408.61 270.541 1409.17 271.102C1409.73 271.662 1410.17 272.328 1410.5 273.098C1410.82 273.845 1410.98 274.651 1410.98 275.515C1410.98 276.379 1410.82 277.196 1410.5 277.967C1410.17 278.714 1409.73 279.368 1409.17 279.928C1408.61 280.489 1407.96 280.933 1407.22 281.259C1406.48 281.586 1405.69 281.75 1404.85 281.75C1403.97 281.75 1403.14 281.586 1402.37 281.259C1401.63 280.933 1400.98 280.489 1400.42 279.928C1399.86 279.368 1399.42 278.714 1399.1 277.967C1398.79 277.196 1398.64 276.379 1398.64 275.515Z" fill="#526771"/>
<path d="M1434.93 287.214H1442.15V296.391H1434.86L1434.79 311.733C1434.79 312.62 1434.86 313.344 1435 313.905C1435.14 314.442 1435.34 314.874 1435.6 315.201C1435.88 315.528 1436.2 315.75 1436.57 315.866C1436.94 315.983 1437.37 316.041 1437.86 316.041C1438.75 316.041 1439.52 315.96 1440.2 315.796C1440.87 315.609 1441.55 315.399 1442.22 315.166L1443.72 321.926C1442.53 322.673 1441.21 323.269 1439.74 323.712C1438.3 324.156 1436.58 324.378 1434.59 324.378C1433.17 324.378 1431.81 324.133 1430.51 323.642C1429.23 323.152 1428.1 322.416 1427.12 321.436C1426.15 320.432 1425.37 319.182 1424.79 317.688C1424.21 316.193 1423.93 314.454 1423.95 312.469L1424.06 296.391H1418.86V287.214H1424.09L1424.16 278.527L1435 273.343L1434.93 287.214Z" fill="#526771"/>
<path d="M1449.19 287.214H1465.4V313.905H1470.42V323.502H1449.19V313.905H1454.63V296.812H1449.19V287.214ZM1454.07 275.515C1454.07 274.651 1454.22 273.845 1454.53 273.098C1454.85 272.328 1455.29 271.662 1455.85 271.102C1456.41 270.541 1457.06 270.098 1457.8 269.771C1458.57 269.444 1459.39 269.28 1460.28 269.28C1461.11 269.28 1461.9 269.444 1462.65 269.771C1463.39 270.098 1464.04 270.541 1464.6 271.102C1465.16 271.662 1465.6 272.328 1465.93 273.098C1466.25 273.845 1466.41 274.651 1466.41 275.515C1466.41 276.379 1466.25 277.196 1465.93 277.967C1465.6 278.714 1465.16 279.368 1464.6 279.928C1464.04 280.489 1463.39 280.933 1462.65 281.259C1461.9 281.586 1461.11 281.75 1460.28 281.75C1459.39 281.75 1458.57 281.586 1457.8 281.259C1457.06 280.933 1456.41 280.489 1455.85 279.928C1455.29 279.368 1454.85 278.714 1454.53 277.967C1454.22 277.196 1454.07 276.379 1454.07 275.515Z" fill="#526771"/>
<path d="M1506.43 302.626C1506.43 300.594 1505.9 299.007 1504.83 297.862C1503.76 296.695 1502.34 296.111 1500.58 296.111C1499.37 296.111 1498.15 296.38 1496.92 296.917C1495.68 297.454 1494.49 298.458 1493.33 299.929V313.905H1499.18V323.502H1476.73V313.905H1482.03V296.812H1476.8V287.214H1493.26V290.402C1494.77 289.211 1496.45 288.277 1498.31 287.599C1500.19 286.899 1502.17 286.549 1504.24 286.549C1508.58 286.549 1511.93 287.775 1514.28 290.226C1516.62 292.655 1517.8 296.216 1517.8 300.91V313.905H1522.92V323.502H1506.43V302.626Z" fill="#526771"/>
<path d="M1554.44 321.611C1553.14 322.358 1551.83 322.895 1550.53 323.222C1549.23 323.549 1547.91 323.712 1546.56 323.712C1543.77 323.712 1541.2 323.234 1538.85 322.276C1536.51 321.319 1534.47 320 1532.75 318.318C1531.06 316.614 1529.73 314.605 1528.78 312.294C1527.83 309.982 1527.35 307.471 1527.35 304.763C1527.35 302.217 1527.8 299.824 1528.71 297.582C1529.64 295.317 1530.93 293.344 1532.58 291.663C1534.23 289.958 1536.2 288.615 1538.51 287.634C1540.81 286.654 1543.3 286.152 1546 286.128C1547.65 286.152 1549.16 286.327 1550.53 286.654C1551.93 286.981 1553.23 287.424 1554.44 287.985V287.214H1565V321.996C1565 325.055 1564.48 327.694 1563.43 329.912C1562.39 332.154 1560.98 333.999 1559.21 335.446C1557.47 336.918 1555.44 338.003 1553.11 338.704C1550.79 339.428 1548.35 339.79 1545.79 339.79C1542.63 339.79 1539.7 339.358 1537.01 338.494C1534.33 337.63 1531.95 336.462 1529.86 334.991L1534.22 327.215C1535.82 328.243 1537.56 329.048 1539.45 329.632C1541.33 330.239 1543.42 330.543 1545.72 330.543C1546.98 330.543 1548.13 330.403 1549.17 330.122C1550.24 329.842 1551.16 329.363 1551.93 328.686C1552.72 328.032 1553.33 327.145 1553.77 326.024C1554.22 324.903 1554.44 323.491 1554.44 321.786V321.611ZM1546.91 314.01C1548.53 314.01 1550 313.601 1551.3 312.784C1552.62 311.943 1553.67 310.846 1554.44 309.491L1554.51 300.665C1553.72 299.193 1552.64 298.026 1551.26 297.162C1549.89 296.298 1548.41 295.854 1546.8 295.831C1545.66 295.854 1544.55 296.088 1543.46 296.531C1542.36 296.952 1541.41 297.559 1540.6 298.353C1539.81 299.147 1539.18 300.092 1538.71 301.19C1538.25 302.264 1538.02 303.467 1538.02 304.798C1538.02 306.199 1538.25 307.471 1538.71 308.616C1539.18 309.76 1539.81 310.729 1540.6 311.523C1541.39 312.317 1542.32 312.936 1543.39 313.379C1544.48 313.8 1545.65 314.01 1546.91 314.01Z" fill="#526771"/>
</g>
</svg>
