<svg width="495" height="256" viewBox="0 0 495 256" fill="none" xmlns="http://www.w3.org/2000/svg">
<g filter="url(#filter0_d_4494_3287)">
<mask id="path-1-outside-1_4494_3287" maskUnits="userSpaceOnUse" x="19.8408" y="4.01963" width="461.22" height="251.218" fill="black">
<rect fill="white" x="19.8408" y="4.01963" width="461.22" height="251.218"/>
<path d="M147.741 21.0022C135.178 19.4264 123.006 25.9385 117.362 37.2886L56.2254 29.6206L53.7438 49.406L73.0346 51.8256L35.1656 117.414C28.0345 136.617 41.336 148.333 66.0678 151.435C90.7996 154.537 107.473 146.58 104.415 126.1L83.9166 53.1904L114.782 57.0616C116.992 65.8799 122.616 73.1167 130.615 77.4359L116.755 187.938L27.721 176.771L25.2394 196.556L223.094 221.372L225.575 201.586L136.541 190.419L150.413 79.8186C159.219 77.7075 166.455 72.0838 170.676 64.072L201.64 67.9557L163.771 133.544C156.64 152.747 169.941 164.463 194.673 167.565C219.405 170.667 236.078 162.71 233.02 142.23L212.522 69.3205L231.813 71.74L234.294 51.9546L173.256 44.299C170.491 31.8942 160.305 22.5779 147.741 21.0022ZM145.26 40.7876C147.884 41.1167 150.269 42.4745 151.892 44.5625C153.514 46.6504 154.241 49.2974 153.912 51.9211C153.583 54.5448 152.225 56.9303 150.137 58.5529C148.049 60.1754 145.402 60.9021 142.778 60.573C140.155 60.244 137.769 58.8861 136.146 56.7982C134.524 54.7102 133.797 52.0632 134.126 49.4395C134.455 46.8158 135.813 44.4303 137.901 42.8077C139.989 41.1852 142.636 40.4585 145.26 40.7876ZM74.4431 84.6593L84.6292 123.618L54.9511 119.896L74.4431 84.6593ZM203.048 100.789L213.235 139.748L183.556 136.026L203.048 100.789Z"/>
<path fill-rule="evenodd" clip-rule="evenodd" d="M375.977 158.516C373.576 156.489 371.597 154.009 370.155 151.217C368.712 148.425 367.833 145.377 367.568 142.245C367.304 139.114 367.659 135.961 368.613 132.967C369.567 129.973 371.101 127.196 373.129 124.795L404.012 88.2376C406.019 85.7737 408.497 83.7344 411.301 82.2386C414.105 80.7427 417.179 79.8204 420.343 79.5254C423.507 79.2303 426.698 79.5686 429.73 80.5203C432.762 81.472 435.575 83.0181 438.003 85.0685C440.431 87.1188 442.426 89.6322 443.872 92.4621C445.318 95.2919 446.186 98.3814 446.425 101.55C446.664 104.719 446.27 107.904 445.264 110.919C444.259 113.934 442.664 116.718 440.571 119.109L409.698 155.68C407.669 158.082 405.188 160.06 402.395 161.503C399.602 162.945 396.552 163.823 393.419 164.087C390.286 164.35 387.133 163.993 384.138 163.037C381.143 162.081 378.366 160.545 375.965 158.515L375.977 158.516ZM346.687 157.278C343.641 149.288 342.793 140.627 344.23 132.198C345.666 123.768 349.336 115.878 354.857 109.348L385.729 72.7891C393.92 63.092 405.627 57.046 418.276 55.981C430.925 54.9161 443.479 58.9195 453.176 67.1105C462.873 75.3016 468.919 87.0093 469.984 99.6581C471.049 112.307 467.046 124.861 458.855 134.558L427.983 171.116C422.611 177.481 415.67 182.334 407.848 185.194C400.025 188.055 391.592 188.824 383.381 187.427C375.17 186.029 367.466 182.513 361.03 177.225C354.595 171.938 349.651 165.062 346.687 157.278Z"/>
<path fill-rule="evenodd" clip-rule="evenodd" d="M311.374 197.911C308.973 195.883 306.994 193.403 305.552 190.611C304.109 187.82 303.23 184.771 302.966 181.64C302.701 178.508 303.056 175.355 304.01 172.361C304.964 169.367 306.498 166.59 308.526 164.189L339.409 127.632C341.417 125.168 343.894 123.129 346.698 121.633C349.502 120.137 352.576 119.215 355.74 118.92C358.904 118.625 362.095 118.963 365.127 119.914C368.159 120.866 370.972 122.412 373.4 124.463C375.828 126.513 377.823 129.026 379.269 131.856C380.715 134.686 381.583 137.776 381.822 140.945C382.061 144.113 381.667 147.298 380.661 150.313C379.656 153.328 378.061 156.112 375.968 158.503L345.095 195.074C340.999 199.921 335.146 202.944 328.822 203.476C322.498 204.008 316.222 202.006 311.374 197.911ZM282.084 196.673C279.038 188.682 278.19 180.022 279.627 171.592C281.063 163.162 284.733 155.272 290.254 148.742L321.124 112.195C325.179 107.394 330.14 103.438 335.724 100.553C341.308 97.669 347.405 95.9127 353.668 95.3848C359.93 94.8569 366.236 95.5676 372.224 97.4765C378.211 99.3853 383.765 102.455 388.566 106.51C393.368 110.565 397.324 115.526 400.208 121.11C403.092 126.694 404.849 132.791 405.377 139.053C405.905 145.316 405.194 151.621 403.285 157.609C401.376 163.597 398.307 169.15 394.252 173.952L363.38 210.51C358.008 216.875 351.067 221.728 343.245 224.589C335.422 227.449 326.989 228.219 318.778 226.821C310.567 225.423 302.863 221.907 296.427 216.619C289.992 211.332 285.048 204.456 282.084 196.673Z"/>
</mask>
<path d="M147.741 21.0022C135.178 19.4264 123.006 25.9385 117.362 37.2886L56.2254 29.6206L53.7438 49.406L73.0346 51.8256L35.1656 117.414C28.0345 136.617 41.336 148.333 66.0678 151.435C90.7996 154.537 107.473 146.58 104.415 126.1L83.9166 53.1904L114.782 57.0616C116.992 65.8799 122.616 73.1167 130.615 77.4359L116.755 187.938L27.721 176.771L25.2394 196.556L223.094 221.372L225.575 201.586L136.541 190.419L150.413 79.8186C159.219 77.7075 166.455 72.0838 170.676 64.072L201.64 67.9557L163.771 133.544C156.64 152.747 169.941 164.463 194.673 167.565C219.405 170.667 236.078 162.71 233.02 142.23L212.522 69.3205L231.813 71.74L234.294 51.9546L173.256 44.299C170.491 31.8942 160.305 22.5779 147.741 21.0022ZM145.26 40.7876C147.884 41.1167 150.269 42.4745 151.892 44.5625C153.514 46.6504 154.241 49.2974 153.912 51.9211C153.583 54.5448 152.225 56.9303 150.137 58.5529C148.049 60.1754 145.402 60.9021 142.778 60.573C140.155 60.244 137.769 58.8861 136.146 56.7982C134.524 54.7102 133.797 52.0632 134.126 49.4395C134.455 46.8158 135.813 44.4303 137.901 42.8077C139.989 41.1852 142.636 40.4585 145.26 40.7876ZM74.4431 84.6593L84.6292 123.618L54.9511 119.896L74.4431 84.6593ZM203.048 100.789L213.235 139.748L183.556 136.026L203.048 100.789Z" fill="url(#paint0_linear_4494_3287)"/>
<path fill-rule="evenodd" clip-rule="evenodd" d="M375.977 158.516C373.576 156.489 371.597 154.009 370.155 151.217C368.712 148.425 367.833 145.377 367.568 142.245C367.304 139.114 367.659 135.961 368.613 132.967C369.567 129.973 371.101 127.196 373.129 124.795L404.012 88.2376C406.019 85.7737 408.497 83.7344 411.301 82.2386C414.105 80.7427 417.179 79.8204 420.343 79.5254C423.507 79.2303 426.698 79.5686 429.73 80.5203C432.762 81.472 435.575 83.0181 438.003 85.0685C440.431 87.1188 442.426 89.6322 443.872 92.4621C445.318 95.2919 446.186 98.3814 446.425 101.55C446.664 104.719 446.27 107.904 445.264 110.919C444.259 113.934 442.664 116.718 440.571 119.109L409.698 155.68C407.669 158.082 405.188 160.06 402.395 161.503C399.602 162.945 396.552 163.823 393.419 164.087C390.286 164.35 387.133 163.993 384.138 163.037C381.143 162.081 378.366 160.545 375.965 158.515L375.977 158.516ZM346.687 157.278C343.641 149.288 342.793 140.627 344.23 132.198C345.666 123.768 349.336 115.878 354.857 109.348L385.729 72.7891C393.92 63.092 405.627 57.046 418.276 55.981C430.925 54.9161 443.479 58.9195 453.176 67.1105C462.873 75.3016 468.919 87.0093 469.984 99.6581C471.049 112.307 467.046 124.861 458.855 134.558L427.983 171.116C422.611 177.481 415.67 182.334 407.848 185.194C400.025 188.055 391.592 188.824 383.381 187.427C375.17 186.029 367.466 182.513 361.03 177.225C354.595 171.938 349.651 165.062 346.687 157.278Z" fill="url(#paint1_linear_4494_3287)"/>
<path fill-rule="evenodd" clip-rule="evenodd" d="M311.374 197.911C308.973 195.883 306.994 193.403 305.552 190.611C304.109 187.82 303.23 184.771 302.966 181.64C302.701 178.508 303.056 175.355 304.01 172.361C304.964 169.367 306.498 166.59 308.526 164.189L339.409 127.632C341.417 125.168 343.894 123.129 346.698 121.633C349.502 120.137 352.576 119.215 355.74 118.92C358.904 118.625 362.095 118.963 365.127 119.914C368.159 120.866 370.972 122.412 373.4 124.463C375.828 126.513 377.823 129.026 379.269 131.856C380.715 134.686 381.583 137.776 381.822 140.945C382.061 144.113 381.667 147.298 380.661 150.313C379.656 153.328 378.061 156.112 375.968 158.503L345.095 195.074C340.999 199.921 335.146 202.944 328.822 203.476C322.498 204.008 316.222 202.006 311.374 197.911ZM282.084 196.673C279.038 188.682 278.19 180.022 279.627 171.592C281.063 163.162 284.733 155.272 290.254 148.742L321.124 112.195C325.179 107.394 330.14 103.438 335.724 100.553C341.308 97.669 347.405 95.9127 353.668 95.3848C359.93 94.8569 366.236 95.5676 372.224 97.4765C378.211 99.3853 383.765 102.455 388.566 106.51C393.368 110.565 397.324 115.526 400.208 121.11C403.092 126.694 404.849 132.791 405.377 139.053C405.905 145.316 405.194 151.621 403.285 157.609C401.376 163.597 398.307 169.15 394.252 173.952L363.38 210.51C358.008 216.875 351.067 221.728 343.245 224.589C335.422 227.449 326.989 228.219 318.778 226.821C310.567 225.423 302.863 221.907 296.427 216.619C289.992 211.332 285.048 204.456 282.084 196.673Z" fill="url(#paint2_linear_4494_3287)"/>
<path d="M147.741 21.0022C135.178 19.4264 123.006 25.9385 117.362 37.2886L56.2254 29.6206L53.7438 49.406L73.0346 51.8256L35.1656 117.414C28.0345 136.617 41.336 148.333 66.0678 151.435C90.7996 154.537 107.473 146.58 104.415 126.1L83.9166 53.1904L114.782 57.0616C116.992 65.8799 122.616 73.1167 130.615 77.4359L116.755 187.938L27.721 176.771L25.2394 196.556L223.094 221.372L225.575 201.586L136.541 190.419L150.413 79.8186C159.219 77.7075 166.455 72.0838 170.676 64.072L201.64 67.9557L163.771 133.544C156.64 152.747 169.941 164.463 194.673 167.565C219.405 170.667 236.078 162.71 233.02 142.23L212.522 69.3205L231.813 71.74L234.294 51.9546L173.256 44.299C170.491 31.8942 160.305 22.5779 147.741 21.0022ZM145.26 40.7876C147.884 41.1167 150.269 42.4745 151.892 44.5625C153.514 46.6504 154.241 49.2974 153.912 51.9211C153.583 54.5448 152.225 56.9303 150.137 58.5529C148.049 60.1754 145.402 60.9021 142.778 60.573C140.155 60.244 137.769 58.8861 136.146 56.7982C134.524 54.7102 133.797 52.0632 134.126 49.4395C134.455 46.8158 135.813 44.4303 137.901 42.8077C139.989 41.1852 142.636 40.4585 145.26 40.7876ZM74.4431 84.6593L84.6292 123.618L54.9511 119.896L74.4431 84.6593ZM203.048 100.789L213.235 139.748L183.556 136.026L203.048 100.789Z" stroke="white" stroke-width="8" mask="url(#path-1-outside-1_4494_3287)"/>
<path fill-rule="evenodd" clip-rule="evenodd" d="M375.977 158.516C373.576 156.489 371.597 154.009 370.155 151.217C368.712 148.425 367.833 145.377 367.568 142.245C367.304 139.114 367.659 135.961 368.613 132.967C369.567 129.973 371.101 127.196 373.129 124.795L404.012 88.2376C406.019 85.7737 408.497 83.7344 411.301 82.2386C414.105 80.7427 417.179 79.8204 420.343 79.5254C423.507 79.2303 426.698 79.5686 429.73 80.5203C432.762 81.472 435.575 83.0181 438.003 85.0685C440.431 87.1188 442.426 89.6322 443.872 92.4621C445.318 95.2919 446.186 98.3814 446.425 101.55C446.664 104.719 446.27 107.904 445.264 110.919C444.259 113.934 442.664 116.718 440.571 119.109L409.698 155.68C407.669 158.082 405.188 160.06 402.395 161.503C399.602 162.945 396.552 163.823 393.419 164.087C390.286 164.35 387.133 163.993 384.138 163.037C381.143 162.081 378.366 160.545 375.965 158.515L375.977 158.516ZM346.687 157.278C343.641 149.288 342.793 140.627 344.23 132.198C345.666 123.768 349.336 115.878 354.857 109.348L385.729 72.7891C393.92 63.092 405.627 57.046 418.276 55.981C430.925 54.9161 443.479 58.9195 453.176 67.1105C462.873 75.3016 468.919 87.0093 469.984 99.6581C471.049 112.307 467.046 124.861 458.855 134.558L427.983 171.116C422.611 177.481 415.67 182.334 407.848 185.194C400.025 188.055 391.592 188.824 383.381 187.427C375.17 186.029 367.466 182.513 361.03 177.225C354.595 171.938 349.651 165.062 346.687 157.278Z" stroke="white" stroke-width="8" mask="url(#path-1-outside-1_4494_3287)"/>
<path fill-rule="evenodd" clip-rule="evenodd" d="M311.374 197.911C308.973 195.883 306.994 193.403 305.552 190.611C304.109 187.82 303.23 184.771 302.966 181.64C302.701 178.508 303.056 175.355 304.01 172.361C304.964 169.367 306.498 166.59 308.526 164.189L339.409 127.632C341.417 125.168 343.894 123.129 346.698 121.633C349.502 120.137 352.576 119.215 355.74 118.92C358.904 118.625 362.095 118.963 365.127 119.914C368.159 120.866 370.972 122.412 373.4 124.463C375.828 126.513 377.823 129.026 379.269 131.856C380.715 134.686 381.583 137.776 381.822 140.945C382.061 144.113 381.667 147.298 380.661 150.313C379.656 153.328 378.061 156.112 375.968 158.503L345.095 195.074C340.999 199.921 335.146 202.944 328.822 203.476C322.498 204.008 316.222 202.006 311.374 197.911ZM282.084 196.673C279.038 188.682 278.19 180.022 279.627 171.592C281.063 163.162 284.733 155.272 290.254 148.742L321.124 112.195C325.179 107.394 330.14 103.438 335.724 100.553C341.308 97.669 347.405 95.9127 353.668 95.3848C359.93 94.8569 366.236 95.5676 372.224 97.4765C378.211 99.3853 383.765 102.455 388.566 106.51C393.368 110.565 397.324 115.526 400.208 121.11C403.092 126.694 404.849 132.791 405.377 139.053C405.905 145.316 405.194 151.621 403.285 157.609C401.376 163.597 398.307 169.15 394.252 173.952L363.38 210.51C358.008 216.875 351.067 221.728 343.245 224.589C335.422 227.449 326.989 228.219 318.778 226.821C310.567 225.423 302.863 221.907 296.427 216.619C289.992 211.332 285.048 204.456 282.084 196.673Z" stroke="white" stroke-width="8" mask="url(#path-1-outside-1_4494_3287)"/>
</g>
<defs>
<filter id="filter0_d_4494_3287" x="0.772705" y="0.768677" width="493.38" height="254.731" filterUnits="userSpaceOnUse" color-interpolation-filters="sRGB">
<feFlood flood-opacity="0" result="BackgroundImageFix"/>
<feColorMatrix in="SourceAlpha" type="matrix" values="0 0 0 0 0 0 0 0 0 0 0 0 0 0 0 0 0 0 127 0" result="hardAlpha"/>
<feOffset dy="4"/>
<feGaussianBlur stdDeviation="10"/>
<feComposite in2="hardAlpha" operator="out"/>
<feColorMatrix type="matrix" values="0 0 0 0 0.556863 0 0 0 0 0.329412 0 0 0 0 0.92549 0 0 0 1 0"/>
<feBlend mode="normal" in2="BackgroundImageFix" result="effect1_dropShadow_4494_3287"/>
<feBlend mode="normal" in="SourceGraphic" in2="effect1_dropShadow_4494_3287" result="shape"/>
</filter>
<linearGradient id="paint0_linear_4494_3287" x1="75.9648" y1="16.6494" x2="254.022" y2="334.778" gradientUnits="userSpaceOnUse">
<stop stop-color="#694DFA"/>
<stop offset="0.523168" stop-color="#A557E2"/>
<stop offset="1" stop-color="#47EDCD"/>
</linearGradient>
<linearGradient id="paint1_linear_4494_3287" x1="75.9648" y1="16.6494" x2="254.022" y2="334.778" gradientUnits="userSpaceOnUse">
<stop stop-color="#694DFA"/>
<stop offset="0.523168" stop-color="#A557E2"/>
<stop offset="1" stop-color="#47EDCD"/>
</linearGradient>
<linearGradient id="paint2_linear_4494_3287" x1="75.9648" y1="16.6494" x2="254.022" y2="334.778" gradientUnits="userSpaceOnUse">
<stop stop-color="#694DFA"/>
<stop offset="0.523168" stop-color="#A557E2"/>
<stop offset="1" stop-color="#47EDCD"/>
</linearGradient>
</defs>
</svg>
